<svg width="512" height="512" viewBox="0 0 512 512" xmlns="http://www.w3.org/2000/svg">
  <defs>
    <linearGradient id="hexGrad" x1="0%" y1="0%" x2="100%" y2="100%">
      <stop offset="0%" stop-color="#7FC4E8"/><stop offset="55%" stop-color="#5BA9D6"/><stop offset="100%" stop-color="#2E86C1"/>
    </linearGradient>
    <linearGradient id="hexStroke" x1="0%" y1="0%" x2="100%" y2="100%">
      <stop offset="0%" stop-color="#A9D6EF"/><stop offset="100%" stop-color="#1F6FA8"/>
    </linearGradient>
  </defs>
  <!-- larger hexagon for small-size legibility -->
  <path d="M256 20 L436 124 Q462 139 462 169 L462 343 Q462 373 436 388 L256 492 L76 388 Q50 373 50 343 L50 169 Q50 139 76 124 Z"
        fill="url(#hexGrad)" stroke="url(#hexStroke)" stroke-width="14"/>
  <!-- bold simplified DNA: 2 strands + 4 rungs + nodes -->
  <g stroke="#FFFFFF" stroke-width="20" fill="none" stroke-linecap="round">
    <path d="M196 120 C320 168 320 240 196 288 C72 336 72 408 196 456" transform="translate(60,-32)"/>
    <path d="M316 120 C192 168 192 240 316 288 C440 336 440 408 316 456" transform="translate(-60,-32)"/>
  </g>
  <g stroke="#FFFFFF" stroke-width="13" stroke-opacity="0.9" stroke-linecap="round">
    <line x1="214" y1="148" x2="298" y2="148"/>
    <line x1="198" y1="196" x2="314" y2="196"/>
    <line x1="198" y1="316" x2="314" y2="316"/>
    <line x1="214" y1="364" x2="298" y2="364"/>
  </g>
  <g fill="#FFFFFF">
    <circle cx="214" cy="148" r="18"/><circle cx="298" cy="148" r="18"/>
    <circle cx="198" cy="196" r="18"/><circle cx="314" cy="196" r="18"/>
    <circle cx="198" cy="316" r="18"/><circle cx="314" cy="316" r="18"/>
    <circle cx="214" cy="364" r="18"/><circle cx="298" cy="364" r="18"/>
  </g>
  <circle cx="256" cy="256" r="24" fill="#FFFFFF"/>
  <circle cx="256" cy="256" r="9" fill="#1F6FA8"/>
</svg>
