<svg width="96" height="96" viewBox="0 0 512 512" xmlns="http://www.w3.org/2000/svg">
  <!-- white outline hexagon for the blue header bar -->
  <path d="M256 28 L428 128 Q452 142 452 170 L452 342 Q452 370 428 384 L256 484 L84 384 Q60 370 60 342 L60 170 Q60 142 84 128 Z"
        fill="rgba(255,255,255,0.12)" stroke="#FFFFFF" stroke-width="16"/>
  <g stroke="#FFFFFF" stroke-width="18" fill="none" stroke-linecap="round">
    <path d="M196 120 C320 168 320 240 196 288 C72 336 72 408 196 456" transform="translate(60,-32)"/>
    <path d="M316 120 C192 168 192 240 316 288 C440 336 440 408 316 456" transform="translate(-60,-32)"/>
  </g>
  <g stroke="#FFFFFF" stroke-width="12" stroke-opacity="0.92" stroke-linecap="round">
    <line x1="214" y1="148" x2="298" y2="148"/>
    <line x1="198" y1="196" x2="314" y2="196"/>
    <line x1="198" y1="316" x2="314" y2="316"/>
    <line x1="214" y1="364" x2="298" y2="364"/>
  </g>
  <g fill="#FFFFFF">
    <circle cx="214" cy="148" r="16"/><circle cx="298" cy="148" r="16"/>
    <circle cx="198" cy="196" r="16"/><circle cx="314" cy="196" r="16"/>
    <circle cx="198" cy="316" r="16"/><circle cx="314" cy="316" r="16"/>
    <circle cx="214" cy="364" r="16"/><circle cx="298" cy="364" r="16"/>
  </g>
  <circle cx="256" cy="256" r="22" fill="#FFFFFF"/>
</svg>
